<?xml version="1.0" encoding="UTF-8"?>
<svg width="400" height="160" viewBox="0 0 400 160" xmlns="http://www.w3.org/2000/svg">
  <defs>
    <linearGradient id="primaryGradient" x1="0%" y1="0%" x2="100%" y2="100%">
      <stop offset="0%" style="stop-color:#00D2FF;stop-opacity:1" />
      <stop offset="100%" style="stop-color:#3A7BD5;stop-opacity:1" />
    </linearGradient>
    
    <linearGradient id="accentGradient" x1="0%" y1="0%" x2="100%" y2="0%">
      <stop offset="0%" style="stop-color:#FF6B6B;stop-opacity:1" />
      <stop offset="100%" style="stop-color:#4ECDC4;stop-opacity:1" />
    </linearGradient>
    
    <filter id="shadow" x="-20%" y="-20%" width="140%" height="140%">
      <feDropShadow dx="2" dy="2" stdDeviation="3" flood-color="#000000" flood-opacity="0.2"/>
    </filter>
  </defs>
  
  <!-- 背景 -->
  <rect width="400" height="160" rx="12" ry="12" fill="#FFFFFF" stroke="#E5E7EB" stroke-width="1"/>
  
  <!-- 主图标区域 -->
  <g transform="translate(20, 30)">
    <!-- 流程图标 -->
    <g filter="url(#shadow)">
      <!-- 主要流程节点 -->
      <rect x="10" y="20" width="35" height="20" rx="4" fill="url(#primaryGradient)"/>
      <rect x="65" y="20" width="35" height="20" rx="4" fill="url(#primaryGradient)"/>
      <rect x="120" y="20" width="35" height="20" rx="4" fill="url(#primaryGradient)"/>
      
      <!-- 连接线和箭头 -->
      <line x1="45" y1="30" x2="65" y2="30" stroke="url(#accentGradient)" stroke-width="3" stroke-linecap="round"/>
      <line x1="100" y1="30" x2="120" y2="30" stroke="url(#accentGradient)" stroke-width="3" stroke-linecap="round"/>
      
      <polygon points="60,27 65,30 60,33" fill="url(#accentGradient)"/>
      <polygon points="115,27 120,30 115,33" fill="url(#accentGradient)"/>
      
      <!-- 节点标签 -->
      <text x="27.5" y="34" font-family="Arial, sans-serif" font-size="8" text-anchor="middle" fill="#FFFFFF" font-weight="600">PRD</text>
      <text x="82.5" y="34" font-family="Arial, sans-serif" font-size="8" text-anchor="middle" fill="#FFFFFF" font-weight="600">AI</text>
      <text x="137.5" y="34" font-family="Arial, sans-serif" font-size="8" text-anchor="middle" fill="#FFFFFF" font-weight="600">任务</text>
      
      <!-- 底部图标 -->
      <!-- 文档图标 -->
      <rect x="15" y="60" width="25" height="30" rx="3" fill="#F8FAFC" stroke="url(#primaryGradient)" stroke-width="2"/>
      <line x1="20" y1="70" x2="35" y2="70" stroke="url(#primaryGradient)" stroke-width="1.5"/>
      <line x1="20" y1="75" x2="35" y2="75" stroke="url(#primaryGradient)" stroke-width="1.5"/>
      <line x1="20" y1="80" x2="30" y2="80" stroke="url(#primaryGradient)" stroke-width="1.5"/>
      
      <!-- AI 大脑图标 -->
      <circle cx="82.5" cy="75" r="18" fill="url(#primaryGradient)" opacity="0.1"/>
      <circle cx="82.5" cy="75" r="15" fill="none" stroke="url(#primaryGradient)" stroke-width="2"/>
      <circle cx="78" cy="70" r="2" fill="url(#primaryGradient)"/>
      <circle cx="87" cy="70" r="2" fill="url(#primaryGradient)"/>
      <path d="M 75 82 Q 82.5 87 90 82" stroke="url(#primaryGradient)" stroke-width="2" fill="none" stroke-linecap="round"/>
      
      <!-- 任务列表图标 -->
      <rect x="125" y="60" width="25" height="30" rx="3" fill="#F8FAFC" stroke="url(#primaryGradient)" stroke-width="2"/>
      <circle cx="130" cy="68" r="2" fill="url(#accentGradient)"/>
      <circle cx="130" cy="75" r="2" fill="url(#accentGradient)"/>
      <circle cx="130" cy="82" r="2" fill="url(#accentGradient)"/>
      <line x1="135" y1="68" x2="145" y2="68" stroke="url(#primaryGradient)" stroke-width="1.5"/>
      <line x1="135" y1="75" x2="145" y2="75" stroke="url(#primaryGradient)" stroke-width="1.5"/>
      <line x1="135" y1="82" x2="145" y2="82" stroke="url(#primaryGradient)" stroke-width="1.5"/>
    </g>
  </g>
  
  <!-- 文字区域 -->
  <g transform="translate(190, 40)">
    <!-- TaskFlow 文字 -->
    <text x="0" y="25" font-family="Arial, sans-serif" font-size="32" font-weight="bold" fill="url(#primaryGradient)">
      TaskFlow
    </text>
    
    <!-- AI 文字 -->
    <text x="150" y="25" font-family="Arial, sans-serif" font-size="32" font-weight="bold" fill="url(#accentGradient)">
      AI
    </text>
    
    <!-- 副标题 -->
    <text x="0" y="45" font-family="Arial, sans-serif" font-size="12" fill="#6B7280">
      智能PRD文档解析与任务管理助手
    </text>
    
    <!-- 特性标签 -->
    <g transform="translate(0, 65)">
      <rect x="0" y="0" width="40" height="16" rx="8" fill="url(#primaryGradient)" opacity="0.15"/>
      <text x="20" y="11" font-family="Arial, sans-serif" font-size="9" text-anchor="middle" fill="url(#primaryGradient)" font-weight="600">
        MCP
      </text>
      
      <rect x="45" y="0" width="30" height="16" rx="8" fill="url(#accentGradient)" opacity="0.15"/>
      <text x="60" y="11" font-family="Arial, sans-serif" font-size="9" text-anchor="middle" fill="url(#accentGradient)" font-weight="600">
        AI
      </text>
      
      <rect x="80" y="0" width="50" height="16" rx="8" fill="#10B981" opacity="0.15"/>
      <text x="105" y="11" font-family="Arial, sans-serif" font-size="9" text-anchor="middle" fill="#10B981" font-weight="600">
        多模型
      </text>
    </g>
  </g>
  
  <!-- 装饰性元素 -->
  <g opacity="0.08">
    <circle cx="360" cy="30" r="15" fill="url(#primaryGradient)"/>
    <circle cx="375" cy="130" r="10" fill="url(#accentGradient)"/>
  </g>
</svg>